<svg width="138" height="114" viewBox="0 0 138 114" fill="none" xmlns="http://www.w3.org/2000/svg">
<path d="M136.882 46.807C134.426 34.3222 126.903 28.2423 121.328 25.3821L120.492 25.2744C120.492 25.2744 108.943 21.7581 99.3437 39.7581C106.993 45.1311 108.311 56.9863 105.337 66.7795C101.452 79.5508 83.9823 86.8963 83.9823 86.8963L78.8934 82.5044L63.6316 113.954H106.363L101.274 108.004C101.274 108.004 118.231 98.3735 125.693 90.439C133.152 82.5044 140.952 67.4905 136.882 46.807Z" fill="black"/>
<path d="M40.5725 78.1126C9.03261 44.6802 56.1722 26.9727 56.1722 26.9727L60.2399 32.0734L75.1637 0.339264H32.4298L38.1946 6.28917C30.3947 8.98074 19.3757 18.0468 19.3757 18.0468C19.3757 18.0468 -2.66719 36.7476 0.889921 63.5232C4.45189 90.2988 23.9515 92.1392 23.9515 92.1392L62.2725 91.2901C52.6078 90.7234 40.5725 78.1126 40.5725 78.1126Z" fill="black"/>
<path d="M76.8559 23.0074C66.0071 23.8565 60.9182 37.1742 60.9182 37.1742C53.0989 58.3006 47.0618 69.5158 44.0493 74.4703L43.5412 75.354C50.3904 83.4368 57.8134 87.4082 65.8539 89.6285C71.3245 89.9677 79.4016 72.3069 79.4016 72.3069C86.241 57.3844 89.6352 50.7743 95.6821 37.8832C96.6619 35.8193 101.432 23.7265 112.126 22.9323C104.989 22.7413 85.621 22.3208 76.8559 23.0074Z" fill="black"/>
</svg>
