<svg width="142" height="144" viewBox="0 0 142 144" fill="none" xmlns="http://www.w3.org/2000/svg">
<path d="M4.73607 17.0804H103.757C105.42 17.0804 106.764 15.7376 106.764 14.0785C106.764 12.4164 105.42 11.0736 103.757 11.0736H4.73607C3.07288 11.0736 1.72918 12.4164 1.72918 14.0785C1.72918 15.7346 3.07288 17.0804 4.73607 17.0804Z" fill="black"/>
<path d="M13.5029 6.00679H94.9844C96.6476 6.00679 97.9913 4.66698 97.9913 3.00489C97.9913 1.3428 96.6476 0 94.9874 0H13.5029C11.8427 0 10.502 1.3428 10.502 3.00489C10.502 4.66698 11.8427 6.00679 13.5029 6.00679Z" fill="black"/>
<path d="M131.264 90.3496V72.9021C131.264 61.0735 122.596 51.4501 111.936 51.4501H110.293C99.6335 51.4501 90.9623 61.0765 90.9623 72.9021V90.3436C84.8171 95.9028 80.9294 103.933 80.9294 112.879C80.9294 129.616 94.4708 143.232 111.115 143.232C127.756 143.232 141.291 129.616 141.291 112.879C141.291 103.936 137.403 95.9117 131.264 90.3496ZM113.951 117.408V129.506H108.272V117.408C105.005 116.23 102.658 113.123 102.658 109.432C102.658 104.738 106.445 100.928 111.115 100.928C115.782 100.928 119.565 104.735 119.565 109.432C119.565 113.123 117.218 116.227 113.951 117.408ZM125.253 86.0824C121.034 83.8206 116.224 82.5285 111.115 82.5285C106.006 82.5285 101.198 83.8235 96.976 86.0795V72.9051C96.976 64.3888 102.954 57.4599 110.296 57.4599H111.939C119.281 57.4599 125.256 64.3858 125.256 72.9051L125.253 86.0824Z" fill="black"/>
<path d="M55.9486 36.2317C44.1152 36.2317 34.4854 47.8365 34.4854 62.097C34.4854 76.3576 44.1152 87.9564 55.9486 87.9564C67.788 87.9564 77.4148 76.3576 77.4148 62.097C77.4148 47.8365 67.788 36.2317 55.9486 36.2317ZM57.4924 78.333V83.8385H54.1511V78.4911C51.0815 78.4314 47.8925 77.4825 46.0382 76.1576L47.3162 72.6097C49.2242 73.8838 51.9803 74.8865 54.9483 74.8865C58.7136 74.8865 61.2577 72.7171 61.2577 69.7003C61.2577 66.7849 59.1884 64.9855 55.2678 63.3951C49.8632 61.2764 46.5189 58.8415 46.5189 54.2342C46.5189 49.8358 49.6482 46.4997 54.5243 45.7029V40.3586H57.8149V45.4941C60.989 45.6015 63.1657 46.446 64.7035 47.3471L63.3778 50.8474C62.261 50.2088 60.0932 49.045 56.7041 49.045C52.6193 49.045 51.0845 51.477 51.0845 53.5956C51.0845 56.3528 53.0433 57.7285 57.6536 59.6352C63.118 61.8613 65.8681 64.6185 65.8681 69.3273C65.8651 73.5078 62.9508 77.4288 57.4924 78.333Z" fill="black"/>
<path d="M84.9545 72.9051C84.9545 57.7643 96.3221 45.4463 110.293 45.4463H111.861V23.8541H0.0361328V100.331H77.2088C78.9108 95.7178 81.5176 91.4417 84.9574 87.8221V72.9051H84.9545ZM15.832 66.9998C13.1207 66.9998 10.917 64.8065 10.917 62.0941C10.917 59.3816 13.1177 57.1824 15.832 57.1824C18.5462 57.1824 20.7469 59.3816 20.7469 62.0941C20.7469 64.8065 18.5432 66.9998 15.832 66.9998ZM55.9486 93.9632C40.8008 93.9632 28.4746 79.6668 28.4746 62.0941C28.4746 44.5183 40.8008 30.222 55.9486 30.222C71.0995 30.222 83.4256 44.5183 83.4256 62.0941C83.4256 79.6668 71.0995 93.9632 55.9486 93.9632Z" fill="black"/>
</svg>
