<svg width="114" height="116" viewBox="0 0 114 116" fill="none" xmlns="http://www.w3.org/2000/svg">
<path d="M53.2902 97.4481L56.6647 102.664V102.669C57.5289 104.008 57.9867 105.573 57.9815 107.169C57.9867 111.757 61.7109 115.469 66.2943 115.464H99.8179C103.594 115.464 106.896 112.915 107.858 109.26L108.624 106.212C108.866 105.357 109.226 104.543 109.694 103.792L112.246 99.863V99.8681C113.393 98.0917 114.005 96.0219 114 93.9058V70.7875C114.005 68.8824 113.254 67.0495 111.912 65.7004C110.569 64.3514 108.743 63.5944 106.839 63.5893C104.021 63.5532 101.448 65.1958 100.286 67.7651C99.8333 68.7073 99.5966 69.7422 99.5966 70.7875V86.3016C99.5709 86.6517 99.468 86.9864 99.2983 87.2902C99.2571 87.3674 99.2005 87.4292 99.1337 87.4807C98.9176 87.7639 98.6347 87.9802 98.3106 88.114H98.2849L91.9475 90.2559H91.9423C89.5452 91.018 87.9197 93.2577 87.9402 95.7755V101.846C87.9454 102.366 87.7396 102.866 87.3744 103.236C87.0092 103.607 86.5102 103.813 85.9906 103.813C85.471 103.813 84.9721 103.607 84.6068 103.236C84.2416 102.866 84.0359 102.366 84.041 101.846V95.7755C84.041 93.4122 84.9206 91.1262 86.5101 89.3755H49.5864L52.7139 96.3522C52.8786 96.7332 53.069 97.0979 53.2902 97.4481Z" fill="black"/>
<path d="M8.3783 41.3203H12.4935V25.6414C9.51516 24.3388 7.85879 21.131 8.52237 17.9491C9.18595 14.767 11.9894 12.4862 15.2354 12.4862H94.7981C97.3959 12.4862 99.7723 13.9536 100.935 16.2809C102.092 18.6081 101.845 21.3886 100.287 23.4687V41.3198H101.655C106.197 41.3044 109.875 37.6281 109.886 33.0816V8.36709C109.875 3.82067 106.197 0.144328 101.655 0.128906H8.37858C3.83643 0.144353 0.16354 3.82067 0.148132 8.36709V33.0816C0.163565 37.6281 3.83615 41.3049 8.3783 41.3203Z" fill="black"/>
<path d="M24.8392 85.2556H87.941C92.4832 85.2504 96.1663 81.5689 96.1715 77.0174V21.6779C97.0099 21.2042 97.5294 20.3186 97.5398 19.3506C97.5398 18.6246 97.2518 17.9244 96.7374 17.4094C96.2229 16.8945 95.5234 16.6062 94.798 16.6062H15.2353C13.723 16.6062 12.4935 17.8368 12.4935 19.3505C12.4935 20.8694 13.723 22.1 15.2353 22.1H16.6088V77.0177C16.6139 81.5692 20.297 85.2504 24.8392 85.2556ZM41.3001 41.3203H42.8279C43.9905 37.9427 47.1592 35.6668 50.7291 35.6566C52.2466 35.6566 53.476 36.8871 53.476 38.4009C53.476 39.9197 52.2466 41.1503 50.7291 41.1503C49.5512 41.1503 48.4915 41.8608 48.0388 42.9473C47.5861 44.0388 47.8382 45.2951 48.6715 46.1293C49.5048 46.9634 50.7548 47.2157 51.8454 46.7626C52.936 46.3095 53.6458 45.2489 53.6458 44.0646C53.6356 39.9609 56.5934 36.4546 60.6366 35.7749C64.6798 35.0901 68.6201 37.4379 69.9524 41.3202H71.4802C72.9925 41.3202 74.222 42.5507 74.222 44.0645C74.222 45.5833 72.9925 46.8139 71.4802 46.8139H69.9524C68.7898 50.1916 65.6159 52.4623 62.046 52.4777C60.5337 52.4777 59.3043 51.2471 59.3043 49.7283C59.3043 48.2145 60.5337 46.984 62.046 46.984C63.2292 46.984 64.2888 46.2734 64.7415 45.1818C65.1942 44.0903 64.9421 42.8392 64.1088 42.0049C63.2755 41.1708 62.0204 40.9185 60.9298 41.3716C59.8444 41.8247 59.1345 42.8853 59.1345 44.0645C59.1448 48.1682 56.1869 51.6796 52.1437 52.3594C48.1005 53.0391 44.1602 50.6912 42.8279 46.8141H41.3001C39.7826 46.8141 38.5584 45.5835 38.5584 44.0646C38.5584 42.5509 39.7826 41.3203 41.3001 41.3203ZM27.5809 22.0997H33.0696V60.8916C36.9328 61.8957 39.9473 64.9181 40.9555 68.7797H71.8242C72.8325 64.9181 75.8469 61.8956 79.7101 60.8916V22.0997H85.1988L85.1936 63.2906C85.1936 64.0166 84.9056 64.7168 84.3912 65.2318C83.8767 65.7467 83.1772 66.035 82.4518 66.035C79.4219 66.0401 76.9682 68.4962 76.9631 71.5289C76.9631 72.2549 76.675 72.9551 76.1606 73.4701C75.6462 73.985 74.9466 74.2733 74.2212 74.2733H38.5577C37.0403 74.2733 35.8109 73.0427 35.8109 71.529C35.8109 68.4963 33.3572 66.0402 30.3273 66.0351C28.8099 66.0351 27.5804 64.8045 27.5804 63.2908L27.5809 22.0997Z" fill="black"/>
</svg>
